<svg version="1.1" id="Layer_1" xmlns="http://www.w3.org/2000/svg" xmlns:xlink="http://www.w3.org/1999/xlink" x="0px" y="0px"
	 width="100%" viewBox="0 0 960 880" enable-background="new 0 0 960 880" xml:space="preserve">
<path fill="#000000" opacity="1.000000" stroke="none"
	d="
M470.372284,513.352234
	C466.976349,519.505554 465.893005,525.694092 465.904907,532.377686
	C465.979004,574.041443 465.803009,615.705627 465.739044,657.369629
	C465.736053,659.319885 466.010956,661.270447 466.615417,663.370911
	C472.193329,651.950195 480.063690,641.999207 485.795349,630.827759
	C488.286987,625.971497 487.091553,620.057373 487.833130,614.643494
	C489.543182,602.158936 491.721008,589.809265 494.455078,577.508240
	C500.310852,551.162231 510.673279,526.620667 523.445801,502.999298
	C535.859070,480.042389 552.306946,460.537994 572.031616,443.349854
	C590.197083,427.520325 609.881104,414.601257 632.170166,405.635315
	C647.716431,399.381714 663.772156,394.995392 680.165405,391.302612
	C707.958801,385.041779 735.930237,385.298615 763.983276,386.914856
	C775.698303,387.589844 787.493530,387.968933 799.127380,389.948395
	C806.039673,391.124512 808.152283,395.010986 806.189880,401.777435
	C803.893494,409.695282 802.162048,417.781250 800.312073,425.823425
	C794.014099,453.201691 783.650574,478.971008 769.862793,503.410675
	C752.606995,533.997620 729.756714,559.817078 702.026733,581.124023
	C679.598755,598.357056 654.743958,611.225525 627.531006,619.552490
	C607.290771,625.745789 586.729675,629.526794 565.682129,631.549194
	C547.294495,633.315979 528.915405,634.836670 510.455261,634.893188
	C505.506989,634.908325 502.284088,636.821777 499.504822,640.471680
	C485.389496,659.008728 476.089752,679.712830 470.719269,702.372986
	C467.236877,717.066528 465.685699,731.965515 463.975433,746.905334
	C461.844879,765.516418 457.799591,783.770874 451.388031,801.432434
	C450.005798,805.240051 448.067474,808.575500 443.150085,807.460266
	C438.825287,806.479492 437.008789,802.995300 438.240356,797.550720
	C439.922180,790.115601 441.912933,782.749817 443.809052,775.363953
	C448.884399,755.594299 451.524109,735.449585 449.592896,715.159180
	C447.137817,689.363892 435.866913,667.015991 420.929840,646.027954
	C414.589569,637.119202 407.554077,634.669556 397.146881,634.693176
	C374.047363,634.745728 350.931519,632.993713 328.095978,629.428040
	C295.705994,624.370483 264.667328,614.883789 236.290039,597.944702
	C211.154648,582.940735 189.803925,563.563660 171.163971,541.099731
	C145.010971,509.581635 128.642639,473.053894 116.419762,434.381073
	C113.221062,424.260498 111.282036,413.851074 109.043983,403.518555
	C107.314407,395.533569 110.693398,391.323944 118.604828,389.744019
	C147.150391,384.043365 176.032394,384.911438 204.695877,386.943451
	C236.297729,389.183746 266.802673,397.055634 295.444855,411.274109
	C320.392944,423.658813 341.409882,440.922943 360.649292,460.917023
	C388.436066,489.793823 406.429382,523.835083 417.506134,562.030029
	C421.809570,576.869202 424.587006,591.983093 426.877411,607.164124
	C427.860046,613.677307 429.137604,620.172791 429.876221,626.736389
	C430.482300,632.121948 433.809326,636.139587 436.905457,640.282166
	C441.495605,646.423706 445.543152,652.917542 449.038879,659.746521
	C449.347778,660.349976 449.489929,661.038757 449.661499,661.545837
	C452.290802,659.655762 451.664032,657.835571 451.668915,656.292908
	C451.759552,627.661926 451.168732,599.042725 450.346039,570.423279
	C449.891815,554.622070 449.885376,538.803772 449.959534,522.994446
	C449.980133,518.601257 448.802399,514.963745 446.420563,511.360352
	C428.090485,483.629517 409.163239,456.305298 390.512665,428.793091
	C376.435577,408.027496 366.568054,385.194794 359.595032,361.041626
	C355.962341,348.458679 352.740265,335.700043 351.540009,322.814209
	C350.347443,310.010590 348.660034,297.080322 350.431488,283.996033
	C351.451141,276.464417 352.081482,268.763397 353.169556,261.259827
	C354.917694,249.204575 357.867249,237.274963 361.684204,225.630585
	C372.984772,191.155975 391.325195,160.773697 414.694153,133.165817
	C425.283722,120.655380 436.633331,109.036903 449.318878,98.689308
	C454.822571,94.199966 461.635162,94.305275 466.848328,99.267143
	C489.218292,120.558678 509.890137,143.233673 525.868164,169.916580
	C538.315125,190.702652 548.584229,212.321045 554.621277,235.898315
	C557.663208,247.778229 559.623291,259.780762 561.585693,271.868256
	C563.913269,286.204956 563.930298,300.611572 562.572937,314.660889
	C560.816711,332.838013 557.315430,350.986115 551.240906,368.456360
	C543.903564,389.558472 535.818237,410.331970 523.776428,429.247833
	C510.920380,449.442963 497.538544,469.302673 484.505066,489.385925
	C479.524109,497.061096 474.692230,504.843781 470.372284,513.352234
M449.868011,351.500000
	C449.857941,326.015686 449.841583,300.531403 449.839569,275.047089
	C449.837524,249.396378 450.204559,223.739426 449.755127,198.096710
	C449.312347,172.832962 452.134338,147.588196 450.406342,122.190239
	C443.686340,127.785034 437.617950,133.446198 431.765289,139.322220
	C410.575867,160.596252 394.769775,185.392654 383.657471,213.240723
	C377.685028,228.208069 373.133057,243.523071 370.147430,259.422699
	C367.845551,271.681244 366.279327,283.965668 366.057556,296.348755
	C365.817261,309.762665 368.100891,323.011108 370.212006,336.263977
	C373.486359,356.819031 380.126617,376.179474 389.981018,394.400269
	C407.006805,425.880890 428.349304,454.698303 446.641876,485.406128
	C447.205231,486.351837 447.800262,487.945679 449.866455,487.298004
	C449.866455,442.386536 449.866455,397.443268 449.868011,351.500000
M535.077026,226.291824
	C533.567627,219.777527 530.895508,213.660187 528.190491,207.614883
	C513.829407,175.520584 492.515961,148.476990 467.178406,124.407349
	C466.595184,123.853302 466.042755,123.166832 464.945557,123.410690
	C463.771210,124.802048 464.356659,126.498894 464.439484,128.082413
	C464.908997,137.056595 465.789612,146.024124 465.885010,155.000763
	C466.879639,248.586975 464.582336,342.186920 467.092133,435.769470
	C467.493896,450.750427 467.211395,465.749420 467.293884,480.739777
	C467.301666,482.156006 466.772125,483.756195 468.319733,485.150757
	C470.882385,483.918488 471.648743,481.223511 472.984070,479.089233
	C481.014221,466.254303 488.915405,453.338684 496.929504,440.493561
	C514.394531,412.500397 530.563538,383.874298 539.325012,351.748535
	C544.046082,334.438232 546.917908,316.869476 547.003418,298.802429
	C547.062744,286.272736 545.622253,273.981201 543.708435,261.684967
	C541.875671,249.909195 539.200989,238.332001 535.077026,226.291824
M165.432404,505.106659
	C166.406082,506.653534 167.384109,508.197723 168.352783,509.747711
	C179.107971,526.958008 192.913040,541.546326 207.419342,555.578003
	C221.153412,568.862793 236.314545,580.102051 253.321991,588.820557
	C271.438507,598.107605 290.404724,604.885803 310.360199,609.171509
	C323.014832,611.889343 335.721191,614.237976 348.557800,615.428772
	C363.603516,616.824585 378.741974,617.228088 393.843079,618.006287
	C395.046143,618.068298 396.511444,618.771667 397.584900,617.061340
	C396.930786,616.183716 396.306824,615.220032 395.560181,614.363220
	C375.492126,591.335266 353.243408,570.511902 329.868927,550.959412
	C306.912048,531.756287 283.120483,513.574341 258.886139,495.980255
	C222.780411,469.767548 186.012604,444.593658 146.749283,423.265137
	C141.752518,420.550842 136.671509,417.929993 130.017059,415.802216
	C137.497162,448.004120 148.640640,477.276123 165.432404,505.106659
M700.660950,561.158325
	C722.862549,542.638489 741.423706,521.045959 755.552063,495.766388
	C769.544983,470.729279 780.698242,444.628448 785.092163,415.829376
	C776.250671,419.623322 767.847412,423.590820 759.784973,428.159760
	C725.606873,447.528198 692.975281,469.357452 661.107239,492.238586
	C637.077881,509.491577 613.653442,527.608093 590.881958,546.566223
	C569.221069,564.599792 548.485413,583.563965 529.026733,603.925293
	C524.894714,608.248962 521.365662,613.148926 517.558777,617.783325
	C517.792603,618.253601 518.026428,618.723877 518.260254,619.194153
	C531.274109,614.983093 544.658264,617.327271 557.911621,616.081421
	C576.143188,614.367615 594.056946,611.753967 611.772766,607.192261
	C644.717224,598.709229 674.057617,583.372803 700.660950,561.158325
M519.198914,549.618469
	C512.388977,566.974792 507.676300,584.806519 506.713043,603.713867
	C545.445679,563.491577 586.885498,526.864075 631.931458,494.296112
	C676.708862,461.922302 722.739746,431.512329 771.852722,403.698761
	C765.158508,403.178558 759.702393,402.538452 754.231628,402.366943
	C730.915588,401.636108 707.756165,402.936737 684.731750,407.081512
	C672.612793,409.263153 660.528992,411.723389 649.128601,416.137970
	C628.779053,424.017914 609.338562,433.747314 592.232056,447.710175
	C575.245361,461.575287 559.665283,476.674835 547.165405,494.812408
	C535.564697,511.645142 527.210754,530.114685 519.198914,549.618469
M305.109100,435.416046
	C291.750946,427.529388 277.885376,420.576721 263.177002,415.718811
	C243.771973,409.309723 223.824951,405.586029 203.344757,403.854279
	C186.853653,402.459808 170.451248,402.239471 153.978195,402.696381
	C151.635696,402.761353 149.165405,402.700134 146.899399,404.422241
	C241.462662,461.894958 333.131653,522.502380 408.707306,605.370483
	C410.152039,601.752014 410.186951,599.279419 409.415070,597.250610
	C407.383026,591.909302 407.392731,586.223145 406.144592,580.751953
	C403.633575,569.744812 400.754669,558.880249 396.543579,548.411438
	C387.241852,525.287170 374.878357,503.985779 359.602600,484.208649
	C344.540283,464.707855 326.662994,448.624420 305.109100,435.416046
z"/>
</svg>
